<svg width="18" height="18" viewBox="0 0 18 18" fill="none" xmlns="http://www.w3.org/2000/svg">
<mask id="path-1-inside-1_133_456" fill="white">
<path d="M12.9702 6.59502L9.00046 10.5648L5.03071 6.59502L3.97021 7.65552L7.93997 11.6253C8.22126 11.9065 8.60272 12.0645 9.00046 12.0645C9.39821 12.0645 9.77967 11.9065 10.061 11.6253L14.0307 7.65552L12.9702 6.59502Z"/>
</mask>
<path d="M12.9702 6.59502L9.00046 10.5648L5.03071 6.59502L3.97021 7.65552L7.93997 11.6253C8.22126 11.9065 8.60272 12.0645 9.00046 12.0645C9.39821 12.0645 9.77967 11.9065 10.061 11.6253L14.0307 7.65552L12.9702 6.59502Z" fill="white"/>
<path d="M12.9702 6.59502L-2.11473 -8.48992L12.9702 -23.5749L28.0551 -8.48993L12.9702 6.59502ZM9.00046 10.5648L24.0854 25.6497L9.00047 40.7347L-6.08448 25.6497L9.00046 10.5648ZM5.03071 6.59502L-10.0542 -8.48992L5.03071 -23.5749L20.1157 -8.48992L5.03071 6.59502ZM3.97021 7.65552L-11.1147 22.7405L-26.1997 7.65552L-11.1147 -7.42942L3.97021 7.65552ZM7.93997 11.6253L-7.1427 26.7125L-7.14498 26.7102L7.93997 11.6253ZM10.061 11.6253L25.1459 26.7102L25.1436 26.7125L10.061 11.6253ZM14.0307 7.65552L29.1157 -7.42943L44.2006 7.65551L29.1157 22.7405L14.0307 7.65552ZM28.0552 21.68L24.0854 25.6497L-6.08448 -4.52017L-2.11473 -8.48992L28.0552 21.68ZM-6.08448 25.6497L-10.0542 21.68L20.1157 -8.48992L24.0854 -4.52017L-6.08448 25.6497ZM20.1157 21.68L19.0552 22.7405L-11.1147 -7.42942L-10.0542 -8.48992L20.1157 21.68ZM19.0552 -7.42942L23.0249 -3.45967L-7.14498 26.7102L-11.1147 22.7405L19.0552 -7.42942ZM23.0226 -3.46195C19.3033 -7.18013 14.2596 -9.26888 9.00046 -9.26888V33.3978C2.94588 33.3978 -2.86082 30.9931 -7.1427 26.7125L23.0226 -3.46195ZM9.00046 -9.26888C3.74138 -9.26888 -1.3024 -7.18013 -5.0217 -3.46195L25.1436 26.7125C20.8617 30.9931 15.055 33.3978 9.00046 33.3978V-9.26888ZM-5.02398 -3.45967L-1.05423 -7.42942L29.1157 22.7405L25.1459 26.7102L-5.02398 -3.45967ZM-1.05422 22.7405L-2.11472 21.68L28.0551 -8.48993L29.1157 -7.42943L-1.05422 22.7405Z" fill="white" mask="url(#path-1-inside-1_133_456)"/>
</svg>
