<svg width="18" height="18" viewBox="0 0 18 18" fill="none" xmlns="http://www.w3.org/2000/svg">
<mask id="path-1-inside-1_233_807" fill="white">
<path d="M12.97 6.59502L9.00022 10.5648L5.03047 6.59502L3.96997 7.65552L7.93972 11.6253C8.22101 11.9065 8.60247 12.0645 9.00022 12.0645C9.39797 12.0645 9.77943 11.9065 10.0607 11.6253L14.0305 7.65552L12.97 6.59502Z"/>
</mask>
<path d="M12.97 6.59502L9.00022 10.5648L5.03047 6.59502L3.96997 7.65552L7.93972 11.6253C8.22101 11.9065 8.60247 12.0645 9.00022 12.0645C9.39797 12.0645 9.77943 11.9065 10.0607 11.6253L14.0305 7.65552L12.97 6.59502Z" fill="#013E46"/>
<path d="M12.97 6.59502L-2.11498 -8.48992L12.97 -23.5749L28.0549 -8.48993L12.97 6.59502ZM9.00022 10.5648L24.0852 25.6497L9.00022 40.7347L-6.08472 25.6497L9.00022 10.5648ZM5.03047 6.59502L-10.0545 -8.48992L5.03047 -23.5749L20.1154 -8.48992L5.03047 6.59502ZM3.96997 7.65552L-11.115 22.7405L-26.1999 7.65552L-11.115 -7.42942L3.96997 7.65552ZM7.93972 11.6253L-7.14295 26.7125L-7.14522 26.7102L7.93972 11.6253ZM10.0607 11.6253L25.1457 26.7102L25.1434 26.7125L10.0607 11.6253ZM14.0305 7.65552L29.1154 -7.42943L44.2004 7.65551L29.1154 22.7405L14.0305 7.65552ZM28.0549 21.68L24.0852 25.6497L-6.08473 -4.52017L-2.11498 -8.48992L28.0549 21.68ZM-6.08472 25.6497L-10.0545 21.68L20.1154 -8.48992L24.0852 -4.52017L-6.08472 25.6497ZM20.1154 21.68L19.0549 22.7405L-11.115 -7.42942L-10.0545 -8.48992L20.1154 21.68ZM19.0549 -7.42942L23.0247 -3.45967L-7.14522 26.7102L-11.115 22.7405L19.0549 -7.42942ZM23.0224 -3.46195C19.3031 -7.18013 14.2593 -9.26888 9.00022 -9.26888V33.3978C2.94564 33.3978 -2.86106 30.9931 -7.14295 26.7125L23.0224 -3.46195ZM9.00022 -9.26888C3.74113 -9.26888 -1.30265 -7.18013 -5.02195 -3.46195L25.1434 26.7125C20.8615 30.9931 15.0548 33.3978 9.00022 33.3978V-9.26888ZM-5.02422 -3.45967L-1.05447 -7.42942L29.1154 22.7405L25.1457 26.7102L-5.02422 -3.45967ZM-1.05446 22.7405L-2.11496 21.68L28.0549 -8.48993L29.1154 -7.42943L-1.05446 22.7405Z" fill="#013E46" mask="url(#path-1-inside-1_233_807)"/>
</svg>
