<svg width="30" height="30" viewBox="0 0 30 30" fill="none" xmlns="http://www.w3.org/2000/svg">
<g clip-path="url(#clip0_133_450)">
<path d="M29.9995 28.2334L22.172 20.4059C24.2053 17.9192 25.205 14.7461 24.9643 11.5429C24.7236 8.33974 23.261 5.35161 20.879 3.1966C18.4969 1.04159 15.3777 -0.115437 12.1665 -0.0351468C8.95535 0.045143 5.89786 1.3566 3.6265 3.62796C1.35514 5.89933 0.0436782 8.95681 -0.0366116 12.168C-0.116901 15.3792 1.04012 18.4984 3.19513 20.8804C5.35015 23.2625 8.33827 24.7251 11.5414 24.9658C14.7446 25.2064 17.9177 24.2067 20.4045 22.1735L28.232 30.0009L29.9995 28.2334ZM12.4995 22.5009C10.5217 22.5009 8.58827 21.9145 6.94378 20.8156C5.29929 19.7168 4.01756 18.155 3.26069 16.3278C2.50381 14.5005 2.30578 12.4899 2.69163 10.55C3.07748 8.61023 4.02989 6.8284 5.42842 5.42988C6.82694 4.03135 8.60877 3.07895 10.5486 2.69309C12.4884 2.30724 14.4991 2.50528 16.3263 3.26215C18.1536 4.01903 19.7154 5.30075 20.8142 6.94525C21.913 8.58974 22.4995 10.5231 22.4995 12.5009C22.4965 15.1522 21.442 17.694 19.5673 19.5687C17.6925 21.4434 15.1507 22.498 12.4995 22.5009Z" fill="#013E46"/>
</g>
<defs>
<clipPath id="clip0_133_450">
<rect width="30" height="30" fill="white"/>
</clipPath>
</defs>
</svg>
