<svg width="18" height="18" viewBox="0 0 18 18" fill="none" xmlns="http://www.w3.org/2000/svg">
<mask id="path-1-inside-1_222_1031" fill="white">
<path d="M5.02979 11.405L8.99954 7.43523L12.9693 11.405L14.0298 10.3445L10.06 6.37473C9.77874 6.09352 9.39728 5.93555 8.99954 5.93555C8.60179 5.93555 8.22033 6.09352 7.93903 6.37473L3.96928 10.3445L5.02979 11.405Z"/>
</mask>
<path d="M5.02979 11.405L8.99954 7.43523L12.9693 11.405L14.0298 10.3445L10.06 6.37473C9.77874 6.09352 9.39728 5.93555 8.99954 5.93555C8.60179 5.93555 8.22033 6.09352 7.93903 6.37473L3.96928 10.3445L5.02979 11.405Z" fill="#D69B41"/>
<path d="M5.02979 11.405L20.1147 26.4899L5.0298 41.5749L-10.0551 26.4899L5.02979 11.405ZM8.99954 7.43523L-6.08541 -7.64972L8.99953 -22.7347L24.0845 -7.64972L8.99954 7.43523ZM12.9693 11.405L28.0542 26.4899L12.9693 41.5749L-2.11566 26.4899L12.9693 11.405ZM14.0298 10.3445L29.1147 -4.74047L44.1997 10.3445L29.1147 25.4294L14.0298 10.3445ZM10.06 6.37473L25.1427 -8.7125L25.145 -8.71022L10.06 6.37473ZM7.93903 6.37473L-7.14591 -8.71022L-7.14363 -8.7125L7.93903 6.37473ZM3.96928 10.3445L-11.1157 25.4294L-26.2006 10.3445L-11.1157 -4.74047L3.96928 10.3445ZM-10.0552 -3.67997L-6.08541 -7.64972L24.0845 22.5202L20.1147 26.4899L-10.0552 -3.67997ZM24.0845 -7.64972L28.0542 -3.67997L-2.11566 26.4899L-6.08541 22.5202L24.0845 -7.64972ZM-2.11566 -3.67997L-1.05516 -4.74047L29.1147 25.4294L28.0542 26.4899L-2.11566 -3.67997ZM-1.05516 25.4294L-5.02491 21.4597L25.145 -8.71022L29.1147 -4.74047L-1.05516 25.4294ZM-5.02263 21.4619C-1.30333 25.1801 3.74045 27.2689 8.99954 27.2689V-15.3978C15.0541 -15.3978 20.8608 -12.9931 25.1427 -8.7125L-5.02263 21.4619ZM8.99954 27.2689C14.2586 27.2689 19.3024 25.1801 23.0217 21.4619L-7.14363 -8.7125C-2.86175 -12.9931 2.94495 -15.3978 8.99954 -15.3978V27.2689ZM23.024 21.4597L19.0542 25.4294L-11.1157 -4.74047L-7.14591 -8.71022L23.024 21.4597ZM19.0542 -4.74048L20.1147 -3.67998L-10.0551 26.4899L-11.1157 25.4294L19.0542 -4.74048Z" fill="#D69B41" mask="url(#path-1-inside-1_222_1031)"/>
</svg>
