<svg width="32" height="32" viewBox="0 0 32 32" fill="none" xmlns="http://www.w3.org/2000/svg">
<g filter="url(#filter0_i_142_853)">
<rect width="32" height="32" rx="8" fill="#D69B41"/>
<path d="M23.8516 26.125H8.14844C7.96196 26.125 7.78311 26.1991 7.65125 26.3309C7.51939 26.4628 7.44531 26.6416 7.44531 26.8281V27.6484C7.44531 27.7417 7.48235 27.8311 7.54828 27.897C7.61421 27.963 7.70363 28 7.79688 28H24.2031C24.2964 28 24.3858 27.963 24.4517 27.897C24.5176 27.8311 24.5547 27.7417 24.5547 27.6484V26.8281C24.5547 26.6416 24.4806 26.4628 24.3487 26.3309C24.2169 26.1991 24.038 26.125 23.8516 26.125Z" fill="white"/>
<path d="M11.8906 22.4165L12.9533 23.6713L14.0159 22.4165L12.9533 21.1621L11.8906 22.4165Z" fill="white"/>
<path d="M14.4764 21.872L15.2414 20.9688H13.7114L14.4764 21.872Z" fill="white"/>
<path d="M14.517 25.4228L15.5394 24.2158L14.4767 22.9609L13.4141 24.2158L14.4364 25.4228H14.517Z" fill="white"/>
<path d="M14.9375 22.4165L16.0002 23.6713L17.0628 22.4165L16.0002 21.1621L14.9375 22.4165Z" fill="white"/>
<path d="M12.9531 24.7598L12.3911 25.423H13.5152L12.9531 24.7598Z" fill="white"/>
<path d="M11.4296 21.872L12.1946 20.9688H10.6646L11.4296 21.872Z" fill="white"/>
<path d="M16 12.8242C16.453 12.8242 16.8203 12.457 16.8203 12.0039C16.8203 11.5509 16.453 11.1836 16 11.1836C15.547 11.1836 15.1797 11.5509 15.1797 12.0039C15.1797 12.457 15.547 12.8242 16 12.8242Z" fill="white"/>
<path d="M21.7422 18.3847L19.4688 16.4848C19.3348 16.3731 19.225 16.2354 19.1459 16.0799C19.0668 15.9245 19.02 15.7546 19.0084 15.5806C18.9969 15.4066 19.0207 15.2321 19.0786 15.0675C19.1364 14.903 19.2271 14.7519 19.345 14.6234L19.6773 14.2616C20.4653 13.4033 20.793 12.3186 20.5994 11.2072C20.4119 10.137 19.75 9.20891 18.8266 8.72281C17.7198 8.14531 16.7716 7.52797 16 6.88672C15.2284 7.52797 14.2802 8.14531 13.1758 8.72422C12.2523 9.20891 11.5895 10.137 11.403 11.2086C11.2094 12.32 11.537 13.4047 12.325 14.263L12.6573 14.6248C12.7753 14.7533 12.8659 14.9044 12.9238 15.0689C12.9816 15.2335 13.0055 15.408 12.9939 15.582C12.9823 15.7561 12.9356 15.9259 12.8565 16.0813C12.7773 16.2368 12.6675 16.3745 12.5336 16.4862L10.2578 18.3842V18.8595H11.4836C11.6387 18.253 12.1272 17.705 12.8898 17.292C13.7336 16.8369 14.8361 16.5861 15.9981 16.5861C17.1602 16.5861 18.2641 16.8369 19.1064 17.292C19.8709 17.705 20.3594 18.253 20.5127 18.8595H21.7422V18.3847ZM17.4086 10.0991L17.74 9.76766C17.7727 9.735 17.8114 9.7091 17.8541 9.69142C17.8968 9.67375 17.9425 9.66465 17.9887 9.66465C18.0349 9.66465 18.0806 9.67375 18.1233 9.69142C18.1659 9.7091 18.2047 9.735 18.2373 9.76766C18.27 9.80031 18.2959 9.83908 18.3136 9.88175C18.3313 9.92441 18.3403 9.97015 18.3403 10.0163C18.3403 10.0625 18.3313 10.1082 18.3136 10.1509C18.2959 10.1936 18.27 10.2323 18.2373 10.265L17.9059 10.5964C17.8733 10.6291 17.8345 10.655 17.7918 10.6726C17.7492 10.6903 17.7034 10.6994 17.6573 10.6994C17.6111 10.6994 17.5654 10.6903 17.5227 10.6726C17.48 10.655 17.4412 10.6291 17.4086 10.5964C17.3759 10.5637 17.35 10.525 17.3324 10.4823C17.3147 10.4396 17.3056 10.3939 17.3056 10.3477C17.3056 10.3016 17.3147 10.2558 17.3324 10.2132C17.35 10.1705 17.3759 10.1317 17.4086 10.0991ZM15.6484 9.1925C15.6484 9.09926 15.6855 9.00984 15.7514 8.94391C15.8173 8.87798 15.9068 8.84094 16 8.84094C16.0932 8.84094 16.1827 8.87798 16.2486 8.94391C16.3145 9.00984 16.3516 9.09926 16.3516 9.1925V9.66125C16.3516 9.75449 16.3145 9.84391 16.2486 9.90984C16.1827 9.97577 16.0932 10.0128 16 10.0128C15.9068 10.0128 15.8173 9.97577 15.7514 9.90984C15.6855 9.84391 15.6484 9.75449 15.6484 9.66125V9.1925ZM13.7627 9.76578C13.7953 9.73311 13.8341 9.7072 13.8767 9.68951C13.9194 9.67183 13.9651 9.66273 14.0113 9.66273C14.0575 9.66273 14.1032 9.67183 14.1459 9.68951C14.1886 9.7072 14.2274 9.73311 14.26 9.76578L14.5914 10.0972C14.6241 10.1298 14.65 10.1686 14.6676 10.2113C14.6853 10.2539 14.6944 10.2997 14.6944 10.3459C14.6944 10.392 14.6853 10.4378 14.6676 10.4804C14.65 10.5231 14.6241 10.5619 14.5914 10.5945C14.5588 10.6272 14.52 10.6531 14.4773 10.6708C14.4346 10.6884 14.3889 10.6975 14.3427 10.6975C14.2966 10.6975 14.2508 10.6884 14.2082 10.6708C14.1655 10.6531 14.1267 10.6272 14.0941 10.5945L13.7627 10.2631C13.73 10.2305 13.7041 10.1917 13.6864 10.149C13.6687 10.1064 13.6596 10.0606 13.6596 10.0145C13.6596 9.96827 13.6687 9.92253 13.6864 9.87986C13.7041 9.8372 13.73 9.79843 13.7627 9.76578ZM13.1875 12.3566C13.0943 12.3566 13.0048 12.3195 12.9389 12.2536C12.873 12.1877 12.8359 12.0982 12.8359 12.005C12.8359 11.9118 12.873 11.8223 12.9389 11.7564C13.0048 11.6905 13.0943 11.6534 13.1875 11.6534H13.6562C13.7495 11.6534 13.8389 11.6905 13.9048 11.7564C13.9708 11.8223 14.0078 11.9118 14.0078 12.005C14.0078 12.0982 13.9708 12.1877 13.9048 12.2536C13.8389 12.3195 13.7495 12.3566 13.6562 12.3566H13.1875ZM14.5938 13.9109L14.2623 14.2423C14.1961 14.3064 14.1073 14.3419 14.0151 14.3411C13.9229 14.3404 13.8347 14.3034 13.7695 14.2383C13.7043 14.1731 13.6673 14.085 13.6664 13.9928C13.6656 13.9006 13.701 13.8118 13.765 13.7455L14.0964 13.4136C14.1624 13.3476 14.2518 13.3106 14.3451 13.3106C14.4383 13.3106 14.5278 13.3476 14.5938 13.4136C14.6597 13.4795 14.6968 13.569 14.6968 13.6623C14.6968 13.7555 14.6597 13.845 14.5938 13.9109ZM16.3539 14.8175C16.3539 14.9107 16.3169 15.0002 16.2509 15.0661C16.185 15.132 16.0956 15.1691 16.0023 15.1691C15.9091 15.1691 15.8197 15.132 15.7538 15.0661C15.6878 15.0002 15.6508 14.9107 15.6508 14.8175V14.3487C15.6508 14.2555 15.6878 14.1661 15.7538 14.1002C15.8197 14.0342 15.9091 13.9972 16.0023 13.9972C16.0956 13.9972 16.185 14.0342 16.2509 14.1002C16.3169 14.1661 16.3539 14.2555 16.3539 14.3487V14.8175ZM16.0023 13.5284C15.701 13.5284 15.4065 13.4391 15.156 13.2717C14.9054 13.1043 14.7102 12.8664 14.5949 12.588C14.4796 12.3096 14.4494 12.0033 14.5082 11.7078C14.567 11.4123 14.7121 11.1408 14.9251 10.9278C15.1382 10.7147 15.4096 10.5696 15.7051 10.5108C16.0007 10.4521 16.307 10.4822 16.5853 10.5975C16.8637 10.7128 17.1016 10.9081 17.269 11.1586C17.4364 11.4092 17.5258 11.7037 17.5258 12.005C17.5253 12.4093 17.3643 12.7969 17.0782 13.0825C16.7921 13.3682 16.4043 13.5286 16 13.5284H16.0023ZM18.2397 14.2423C18.207 14.275 18.1683 14.3009 18.1256 14.3186C18.0829 14.3363 18.0372 14.3454 17.991 14.3454C17.9448 14.3454 17.8991 14.3363 17.8564 14.3186C17.8138 14.3009 17.775 14.275 17.7423 14.2423L17.4109 13.9109C17.345 13.845 17.3079 13.7555 17.3079 13.6623C17.3079 13.569 17.345 13.4795 17.4109 13.4136C17.4769 13.3476 17.5663 13.3106 17.6596 13.3106C17.7529 13.3106 17.8423 13.3476 17.9083 13.4136L18.2397 13.7455C18.2722 13.7782 18.2979 13.8171 18.3154 13.8598C18.3329 13.9025 18.3417 13.9482 18.3415 13.9944C18.3413 14.0405 18.332 14.0862 18.3141 14.1287C18.2962 14.1713 18.2702 14.2099 18.2373 14.2423H18.2397ZM18.3438 12.3566C18.2505 12.3566 18.1611 12.3195 18.0952 12.2536C18.0292 12.1877 17.9922 12.0982 17.9922 12.005C17.9922 11.9118 18.0292 11.8223 18.0952 11.7564C18.1611 11.6905 18.2505 11.6534 18.3438 11.6534H18.8125C18.9057 11.6534 18.9952 11.6905 19.0611 11.7564C19.127 11.8223 19.1641 11.9118 19.1641 12.005C19.1641 12.0982 19.127 12.1877 19.0611 12.2536C18.9952 12.3195 18.9057 12.3566 18.8125 12.3566H18.3438Z" fill="white"/>
<path d="M9.55469 18.3179C9.55785 18.2293 9.58049 18.1425 9.621 18.0637C9.66151 17.9849 9.71889 17.9159 9.78906 17.8618L12.0859 15.9456C12.1467 15.8947 12.1966 15.8321 12.2325 15.7615C12.2685 15.6908 12.2897 15.6136 12.295 15.5345C12.3002 15.4555 12.2894 15.3761 12.2631 15.3014C12.2369 15.2266 12.1957 15.1579 12.1422 15.0995L11.8098 14.7371C10.8723 13.7143 10.4814 12.4182 10.7134 11.0865C10.9342 9.80306 11.7344 8.6879 12.8491 8.10197C14.0177 7.48931 14.9997 6.83634 15.768 6.1604C15.8322 6.10423 15.9147 6.07327 16 6.07327C16.0853 6.07327 16.1678 6.10423 16.232 6.1604C17.0003 6.83587 17.9823 7.48931 19.1509 8.10197C20.2666 8.68696 21.0658 9.80306 21.2894 11.0865C21.5237 12.4182 21.1319 13.7143 20.193 14.7371L19.8606 15.0995C19.8071 15.1579 19.7659 15.2266 19.7397 15.3014C19.7134 15.3761 19.7026 15.4555 19.7079 15.5345C19.7131 15.6136 19.7343 15.6908 19.7703 15.7615C19.8062 15.8321 19.8561 15.8947 19.9169 15.9456L22.2137 17.8618C22.2834 17.9162 22.3403 17.9853 22.3804 18.0641C22.4205 18.1429 22.4428 18.2295 22.4458 18.3179V25.4223H23.852V18.3179C23.8494 18.0235 23.7821 17.7334 23.6547 17.468C23.5274 17.2026 23.3432 16.9685 23.1152 16.7823L21.4698 15.4098C22.5203 14.1151 22.9581 12.4717 22.675 10.8451C22.3769 9.13415 21.3034 7.64306 19.8044 6.8565C17.0678 5.42118 16.3103 4.1879 16.3042 4.17712C16.2736 4.12333 16.2293 4.07861 16.1757 4.0475C16.1222 4.01639 16.0614 4 15.9995 4C15.9376 4 15.8768 4.01639 15.8233 4.0475C15.7698 4.07861 15.7255 4.12333 15.6948 4.17712C15.6878 4.18978 14.9303 5.42353 12.1937 6.85884C10.6966 7.64306 9.625 9.13415 9.325 10.8442C9.04375 12.4707 9.47969 14.1142 10.5302 15.4088L8.88531 16.7813C8.65718 16.9676 8.47289 17.2019 8.34554 17.4675C8.21818 17.733 8.15089 18.0234 8.14844 18.3179V25.4223H9.55469V18.3179Z" fill="white"/>
<path d="M21.7423 21.5781L21.0312 22.4177L21.7423 23.2572V21.5781Z" fill="white"/>
<path d="M17.5233 21.872L18.2883 20.9688H16.7583L17.5233 21.872Z" fill="white"/>
<path d="M10.2578 23.2572L10.9689 22.4177L10.2578 21.5781V23.2572Z" fill="white"/>
<path d="M16 17.2891C14.2052 17.2891 12.6194 17.9777 12.2266 18.8594H19.7734C19.3806 17.9777 17.7948 17.2891 16 17.2891Z" fill="white"/>
<path d="M21.7422 19.5625H10.2578V20.2656H21.7422V19.5625Z" fill="white"/>
<path d="M10.2578 25.4228H11.47L12.4923 24.2158L11.4297 22.9609L10.2578 24.3442V25.4228Z" fill="white"/>
<path d="M21.7423 25.4228V24.3442L20.5705 22.9609L19.5078 24.2158L20.5302 25.4228H21.7423Z" fill="white"/>
<path d="M16 24.7598L15.438 25.423H16.5621L16 24.7598Z" fill="white"/>
<path d="M19.0469 24.7598L18.4849 25.423H19.6089L19.0469 24.7598Z" fill="white"/>
<path d="M17.5639 25.4228L18.5863 24.2158L17.5236 22.9609L16.4609 24.2158L17.4833 25.4228H17.5639Z" fill="white"/>
<path d="M21.3352 20.9688H19.8052L20.5702 21.872L21.3352 20.9688Z" fill="white"/>
<path d="M17.9844 22.4165L19.047 23.6713L20.1097 22.4165L19.047 21.1621L17.9844 22.4165Z" fill="white"/>
</g>
<defs>
<filter id="filter0_i_142_853" x="0" y="0" width="32" height="36" filterUnits="userSpaceOnUse" color-interpolation-filters="sRGB">
<feFlood flood-opacity="0" result="BackgroundImageFix"/>
<feBlend mode="normal" in="SourceGraphic" in2="BackgroundImageFix" result="shape"/>
<feColorMatrix in="SourceAlpha" type="matrix" values="0 0 0 0 0 0 0 0 0 0 0 0 0 0 0 0 0 0 127 0" result="hardAlpha"/>
<feOffset dy="4"/>
<feGaussianBlur stdDeviation="15"/>
<feComposite in2="hardAlpha" operator="arithmetic" k2="-1" k3="1"/>
<feColorMatrix type="matrix" values="0 0 0 0 0 0 0 0 0 0 0 0 0 0 0 0 0 0 0.2 0"/>
<feBlend mode="normal" in2="shape" result="effect1_innerShadow_142_853"/>
</filter>
</defs>
</svg>
