<svg width="32" height="32" viewBox="0 0 32 32" fill="none" xmlns="http://www.w3.org/2000/svg">
<g filter="url(#filter0_i_142_840)">
<rect width="32" height="32" rx="8" fill="#D69B41"/>
<g clip-path="url(#clip0_142_840)">
<path d="M16 21.0156C16.9061 21.0156 17.6406 20.2811 17.6406 19.375C17.6406 18.4689 16.9061 17.7344 16 17.7344C15.0939 17.7344 14.3594 18.4689 14.3594 19.375C14.3594 20.2811 15.0939 21.0156 16 21.0156Z" fill="white"/>
<path d="M15.6482 9.9812C15.1795 9.42151 14.4505 8.84214 13.3804 8.73011C11.646 8.54823 10.971 7.63417 10.9429 7.59761C10.9078 7.54741 10.8602 7.50723 10.8048 7.48105C10.7495 7.45487 10.6882 7.44358 10.6272 7.44832C10.5661 7.45305 10.5073 7.47364 10.4566 7.50804C10.406 7.54244 10.3651 7.58947 10.3382 7.64448L10.0293 8.27776L15.6482 11.8754V9.9812Z" fill="white"/>
<path d="M21.6597 7.64379C21.6329 7.58868 21.5923 7.5415 21.5417 7.50689C21.4912 7.47229 21.4325 7.45145 21.3714 7.44645C21.3105 7.44152 21.2494 7.4527 21.1942 7.47887C21.139 7.50503 21.0916 7.54526 21.0569 7.59551C21.0288 7.63395 20.3538 8.54801 18.6194 8.72988C17.5492 8.84191 16.8184 9.42129 16.3516 9.98098V11.8752L21.9686 8.27707L21.6597 7.64379Z" fill="white"/>
<path d="M7.10946 9.67262L14.7112 14.6831C14.7112 15.025 14.847 15.3528 15.0887 15.5946C15.3305 15.8363 15.6584 15.9722 16.0002 15.9722C16.3421 15.9722 16.67 15.8363 16.9117 15.5946C17.1535 15.3528 17.2893 15.025 17.2893 14.6831L24.8901 9.67262C25.112 9.52212 25.266 9.29062 25.3191 9.02783C25.3722 8.76504 25.3201 8.49191 25.1741 8.26708C25.028 8.04225 24.7996 7.88364 24.538 7.82532C24.2763 7.76699 24.0022 7.81359 23.7745 7.95512L15.9998 12.9361L8.22508 7.95606C7.99758 7.81902 7.72575 7.7757 7.46693 7.83525C7.2081 7.89481 6.98253 8.05257 6.8378 8.27526C6.69308 8.49794 6.64051 8.76814 6.69119 9.02885C6.74187 9.28955 6.89184 9.52037 7.10946 9.67262Z" fill="white"/>
<path d="M27.2969 23.1484H4.70312C4.51664 23.1484 4.3378 23.2225 4.20594 23.3544C4.07408 23.4862 4 23.6651 4 23.8516C4 24.038 4.07408 24.2169 4.20594 24.3487C4.3378 24.4806 4.51664 24.5547 4.70312 24.5547H27.2969C27.4834 24.5547 27.6622 24.4806 27.7941 24.3487C27.9259 24.2169 28 24.038 28 23.8516C28 23.6651 27.9259 23.4862 27.7941 23.3544C27.6622 23.2225 27.4834 23.1484 27.2969 23.1484Z" fill="white"/>
<path d="M24.503 13.2044L17.1104 17.3125C17.4751 17.5091 17.7812 17.7989 17.9975 18.1523C18.2138 18.5057 18.3325 18.9102 18.3416 19.3245C18.3506 19.7387 18.2497 20.148 18.049 20.5105C17.8484 20.8731 17.5552 21.1759 17.1994 21.3883L18.9999 22.4453H24.1299L18.4069 19.2658L25.5624 15.0569C25.7642 14.9382 25.9214 14.7564 26.0097 14.5396C26.098 14.3227 26.1126 14.0828 26.051 13.8569C25.9895 13.631 25.8554 13.4316 25.6693 13.2894C25.4833 13.1473 25.2556 13.0703 25.0214 13.0703C24.8401 13.0705 24.6617 13.1166 24.503 13.2044Z" fill="white"/>
<path d="M6.43727 15.0569L13.5927 19.2658L7.86977 22.4453H12.9998L14.7984 21.3873C14.4425 21.175 14.1494 20.8721 13.9487 20.5096C13.7481 20.147 13.6472 19.7378 13.6562 19.3235C13.6653 18.9093 13.784 18.5048 14.0003 18.1514C14.2166 17.7979 14.5227 17.5082 14.8874 17.3116L7.49665 13.2044C7.33794 13.1166 7.15957 13.0705 6.97821 13.0703C6.74406 13.0703 6.5164 13.1473 6.33033 13.2894C6.14427 13.4316 6.01013 13.631 5.94861 13.8569C5.8871 14.0828 5.90161 14.3227 5.98992 14.5396C6.07823 14.7564 6.23542 14.9382 6.43727 15.0569Z" fill="white"/>
</g>
</g>
<defs>
<filter id="filter0_i_142_840" x="0" y="0" width="32" height="36" filterUnits="userSpaceOnUse" color-interpolation-filters="sRGB">
<feFlood flood-opacity="0" result="BackgroundImageFix"/>
<feBlend mode="normal" in="SourceGraphic" in2="BackgroundImageFix" result="shape"/>
<feColorMatrix in="SourceAlpha" type="matrix" values="0 0 0 0 0 0 0 0 0 0 0 0 0 0 0 0 0 0 127 0" result="hardAlpha"/>
<feOffset dy="4"/>
<feGaussianBlur stdDeviation="15"/>
<feComposite in2="hardAlpha" operator="arithmetic" k2="-1" k3="1"/>
<feColorMatrix type="matrix" values="0 0 0 0 0 0 0 0 0 0 0 0 0 0 0 0 0 0 0.2 0"/>
<feBlend mode="normal" in2="shape" result="effect1_innerShadow_142_840"/>
</filter>
<clipPath id="clip0_142_840">
<rect width="24" height="24" fill="white" transform="translate(4 4)"/>
</clipPath>
</defs>
</svg>
