<svg width="56" height="56" viewBox="0 0 56 56" fill="none" xmlns="http://www.w3.org/2000/svg">
<rect width="56" height="56" rx="12" fill="#013E46"/>
<path d="M28.4078 29.5705C28.2205 29.3842 27.967 29.2797 27.7028 29.2797C27.4386 29.2797 27.1852 29.3842 26.9978 29.5705L16.9978 39.5705C16.9041 39.6634 16.8297 39.774 16.7789 39.8959C16.7282 40.0177 16.702 40.1484 16.702 40.2805C16.702 40.4125 16.7282 40.5432 16.7789 40.665C16.8297 40.7869 16.9041 40.8975 16.9978 40.9905C17.1852 41.1767 17.4386 41.2812 17.7028 41.2812C17.967 41.2812 18.2205 41.1767 18.4078 40.9905L27.7078 31.6905L36.9978 40.9905C37.1852 41.1767 37.4386 41.2812 37.7028 41.2812C37.967 41.2812 38.2205 41.1767 38.4078 40.9905C38.5015 40.8975 38.5759 40.7869 38.6267 40.665C38.6775 40.5432 38.7036 40.4125 38.7036 40.2805C38.7036 40.1484 38.6775 40.0177 38.6267 39.8959C38.5759 39.774 38.5015 39.6634 38.4078 39.5705L28.4078 29.5705Z" fill="#D69B41"/>
<path d="M18.6007 28.7092L27.9007 19.4092L37.1907 28.7092C37.378 28.8955 37.6315 29 37.8957 29C38.1599 29 38.4133 28.8955 38.6007 28.7092C38.6944 28.6162 38.7688 28.5056 38.8196 28.3838C38.8703 28.2619 38.8965 28.1312 38.8965 27.9992C38.8965 27.8672 38.8703 27.7365 38.8196 27.6146C38.7688 27.4928 38.6944 27.3822 38.6007 27.2892L28.6007 17.2892C28.4133 17.103 28.1599 16.9984 27.8957 16.9984C27.6315 16.9984 27.378 17.103 27.1907 17.2892L17.1907 27.2892C17.097 27.3822 17.0226 27.4928 16.9718 27.6146C16.921 27.7365 16.8949 27.8672 16.8949 27.9992C16.8949 28.1312 16.921 28.2619 16.9718 28.3838C17.0226 28.5056 17.097 28.6162 17.1907 28.7092C17.378 28.8955 17.6315 29 17.8957 29C18.1599 29 18.4133 28.8955 18.6007 28.7092Z" fill="#D69B41"/>
</svg>
