<svg width="32" height="32" viewBox="0 0 32 32" fill="none" xmlns="http://www.w3.org/2000/svg">
<g filter="url(#filter0_i_142_824)">
<rect width="32" height="32" rx="8" fill="#D69B41"/>
<path d="M16 23.6172C14.2811 23.6172 12.625 23.2891 11.162 22.668C10.7341 23.1203 10.4922 23.6406 10.4922 24.2031C10.4922 24.2964 10.5292 24.3858 10.5952 24.4517C10.6611 24.5176 10.7505 24.5547 10.8438 24.5547H21.1562C21.2495 24.5547 21.3389 24.5176 21.4048 24.4517C21.4708 24.3858 21.5078 24.2964 21.5078 24.2031C21.5078 23.6406 21.2659 23.1203 20.838 22.668C19.375 23.2872 17.7189 23.6172 16 23.6172Z" fill="white"/>
<path d="M27.3792 16.8078C27.1857 16.653 26.9596 16.5442 26.718 16.4895C26.4763 16.4349 26.2254 16.4358 25.9842 16.4923L25.9373 16.5026C25.9164 16.7536 25.8797 17.003 25.8276 17.2493L26.1412 17.1771C26.2742 17.1463 26.4123 17.1447 26.546 17.1725C26.6796 17.2002 26.8057 17.2567 26.9154 17.3381C27.025 17.4194 27.1157 17.5235 27.1812 17.6434C27.2466 17.7632 27.2852 17.8958 27.2943 18.032C27.3034 18.1682 27.2828 18.3048 27.234 18.4323C27.1851 18.5598 27.1091 18.6751 27.0112 18.7703C26.9134 18.8655 26.796 18.9383 26.6672 18.9836C26.5384 19.029 26.4013 19.0458 26.2654 19.0329C25.891 18.9979 25.5138 19.0031 25.1404 19.0484C24.9784 19.3336 24.7967 19.6073 24.5967 19.8673C25.1182 19.7284 25.6601 19.6829 26.1975 19.7328C26.5503 19.7659 26.9044 19.6842 27.207 19.4999C27.5097 19.3155 27.7447 19.0384 27.8772 18.7097C28.0097 18.381 28.0325 18.0184 27.9423 17.6757C27.852 17.333 27.6535 17.0286 27.3764 16.8078H27.3792Z" fill="white"/>
<path d="M6.22041 19.0089C6.05775 19.0089 5.8951 19.0164 5.73338 19.0318C5.59746 19.0448 5.46034 19.0281 5.33152 18.9828C5.2027 18.9375 5.08526 18.8648 4.98733 18.7696C4.8894 18.6745 4.81333 18.5592 4.76437 18.4317C4.71541 18.3043 4.69474 18.1677 4.70379 18.0314C4.71284 17.8952 4.75139 17.7626 4.81678 17.6427C4.88217 17.5228 4.97283 17.4186 5.08249 17.3372C5.19214 17.2559 5.31817 17.1993 5.45184 17.1715C5.58552 17.1437 5.72365 17.1452 5.85666 17.176L6.17025 17.2482C6.11878 17.0018 6.08277 16.7524 6.06244 16.5015L6.01557 16.4912C5.78346 16.4377 5.54251 16.4353 5.30937 16.4841C5.07623 16.5329 4.85647 16.6317 4.66529 16.7738C4.4741 16.9159 4.31605 17.0977 4.20206 17.3069C4.08807 17.516 4.02086 17.7474 4.00508 17.9851C3.9893 18.2228 4.02532 18.461 4.11066 18.6834C4.196 18.9058 4.32862 19.1069 4.49935 19.273C4.67007 19.4391 4.87483 19.5662 5.09947 19.6453C5.32411 19.7245 5.56327 19.754 5.80041 19.7317C6.33776 19.6818 6.8797 19.7273 7.40119 19.8662C7.20167 19.6059 7.02061 19.3319 6.85932 19.0464C6.64731 19.0209 6.43394 19.0084 6.22041 19.0089Z" fill="white"/>
<path d="M24.9529 17.7649C24.4003 18.1821 23.6057 18.5426 22.5914 18.836C20.8162 19.3516 18.4757 19.6329 16.0003 19.6329C13.5248 19.6329 11.1843 19.3516 9.40918 18.836C8.39434 18.5426 7.5998 18.1821 7.04668 17.7649L7.04199 17.7612C7.45684 18.9532 8.29215 20.0384 9.49355 20.922C11.2359 22.2059 13.5464 22.9127 15.9998 22.9127C18.4532 22.9127 20.7637 22.2073 22.5061 20.922C23.7075 20.037 24.5428 18.9495 24.9571 17.7598L24.9529 17.7649Z" fill="white"/>
<path d="M19.7808 16.5625C18.7763 15.9728 17.4338 15.6484 15.9999 15.6484C14.566 15.6484 13.2235 15.9728 12.2189 16.5611C11.3283 17.0819 10.8174 17.7461 10.7588 18.4441C12.2818 18.7595 14.0972 18.9297 15.9999 18.9297C17.9025 18.9297 19.718 18.7595 21.241 18.4441C21.1824 17.7461 20.6691 17.0819 19.7808 16.5625Z" fill="white"/>
<path d="M20.1362 15.9522C21.1919 16.5709 21.8191 17.3898 21.9311 18.2837C22.0902 18.2434 22.245 18.2017 22.3956 18.1586C24.2678 17.6162 25.2578 16.8691 25.2578 15.9977C25.2578 15.1262 24.2678 14.3791 22.3956 13.8367C20.7658 13.3652 18.6311 13.0952 16.3516 13.0703V14.95C17.777 15.0011 19.1097 15.3522 20.1362 15.9522Z" fill="white"/>
<path d="M9.60437 18.1605C9.75469 18.2037 9.90953 18.2454 10.0689 18.2857C10.1809 17.3918 10.8081 16.5729 11.8637 15.9541C12.8903 15.3527 14.223 15.0016 15.6484 14.952V13.0723C13.3689 13.0971 11.2342 13.3671 9.60437 13.8387C7.73219 14.381 6.74219 15.1282 6.74219 15.9996C6.74219 16.871 7.73219 17.6182 9.60437 18.1605Z" fill="white"/>
<path d="M16.3516 13.0726V12.5692C16.8143 12.4816 17.2318 12.2347 17.5315 11.8714C17.8312 11.5081 17.9942 11.0513 17.9922 10.5803C17.9922 9.55468 16.4406 7.76499 16.2639 7.56436C16.2309 7.52694 16.1903 7.49698 16.1448 7.47645C16.0993 7.45593 16.0499 7.44531 16 7.44531C15.9501 7.44531 15.9008 7.45593 15.8553 7.47645C15.8098 7.49698 15.7691 7.52694 15.7361 7.56436C15.5594 7.76499 14.0078 9.55468 14.0078 10.5803C14.0059 11.0513 14.1689 11.5081 14.4686 11.8714C14.7682 12.2347 15.1857 12.4816 15.6485 12.5692V13.0726C15.7653 13.0726 15.8825 13.0719 16 13.0703C16.1175 13.0687 16.2347 13.0695 16.3516 13.0726Z" fill="white"/>
<path d="M20.9219 10.6094C21.6325 10.6094 22.2109 11.3453 22.2109 12.25C22.2109 12.3432 22.248 12.4327 22.3139 12.4986C22.3798 12.5645 22.4693 12.6016 22.5625 12.6016C22.6557 12.6016 22.7452 12.5645 22.8111 12.4986C22.877 12.4327 22.9141 12.3432 22.9141 12.25C22.9141 11.3453 23.4925 10.6094 24.2031 10.6094C24.2964 10.6094 24.3858 10.5723 24.4517 10.5064C24.5176 10.4405 24.5547 10.3511 24.5547 10.2578C24.5547 10.1646 24.5176 10.0752 24.4517 10.0092C24.3858 9.94329 24.2964 9.90625 24.2031 9.90625C23.4925 9.90625 22.9141 9.17031 22.9141 8.26562C22.9141 8.17238 22.877 8.08296 22.8111 8.01703C22.7452 7.9511 22.6557 7.91406 22.5625 7.91406C22.4693 7.91406 22.3798 7.9511 22.3139 8.01703C22.248 8.08296 22.2109 8.17238 22.2109 8.26562C22.2109 9.17031 21.6325 9.90625 20.9219 9.90625C20.8286 9.90625 20.7392 9.94329 20.6733 10.0092C20.6074 10.0752 20.5703 10.1646 20.5703 10.2578C20.5703 10.3511 20.6074 10.4405 20.6733 10.5064C20.7392 10.5723 20.8286 10.6094 20.9219 10.6094Z" fill="white"/>
<path d="M7.79688 10.6094C8.5075 10.6094 9.08594 11.3453 9.08594 12.25C9.08594 12.3432 9.12298 12.4327 9.18891 12.4986C9.25484 12.5645 9.34426 12.6016 9.4375 12.6016C9.53074 12.6016 9.62016 12.5645 9.68609 12.4986C9.75202 12.4327 9.78906 12.3432 9.78906 12.25C9.78906 11.3453 10.3675 10.6094 11.0781 10.6094C11.1714 10.6094 11.2608 10.5723 11.3267 10.5064C11.3926 10.4405 11.4297 10.3511 11.4297 10.2578C11.4297 10.1646 11.3926 10.0752 11.3267 10.0092C11.2608 9.94329 11.1714 9.90625 11.0781 9.90625C10.3675 9.90625 9.78906 9.17031 9.78906 8.26562C9.78906 8.17238 9.75202 8.08296 9.68609 8.01703C9.62016 7.9511 9.53074 7.91406 9.4375 7.91406C9.34426 7.91406 9.25484 7.9511 9.18891 8.01703C9.12298 8.08296 9.08594 8.17238 9.08594 8.26562C9.08594 9.17031 8.5075 9.90625 7.79688 9.90625C7.70363 9.90625 7.61421 9.94329 7.54828 10.0092C7.48235 10.0752 7.44531 10.1646 7.44531 10.2578C7.44531 10.3511 7.48235 10.4405 7.54828 10.5064C7.61421 10.5723 7.70363 10.6094 7.79688 10.6094Z" fill="white"/>
</g>
<defs>
<filter id="filter0_i_142_824" x="0" y="0" width="32" height="36" filterUnits="userSpaceOnUse" color-interpolation-filters="sRGB">
<feFlood flood-opacity="0" result="BackgroundImageFix"/>
<feBlend mode="normal" in="SourceGraphic" in2="BackgroundImageFix" result="shape"/>
<feColorMatrix in="SourceAlpha" type="matrix" values="0 0 0 0 0 0 0 0 0 0 0 0 0 0 0 0 0 0 127 0" result="hardAlpha"/>
<feOffset dy="4"/>
<feGaussianBlur stdDeviation="15"/>
<feComposite in2="hardAlpha" operator="arithmetic" k2="-1" k3="1"/>
<feColorMatrix type="matrix" values="0 0 0 0 0 0 0 0 0 0 0 0 0 0 0 0 0 0 0.2 0"/>
<feBlend mode="normal" in2="shape" result="effect1_innerShadow_142_824"/>
</filter>
</defs>
</svg>
